<svg width="34" height="34" viewBox="0 0 34 34" fill="none" xmlns="http://www.w3.org/2000/svg">
<g filter="url(#filter0_d_18_430)">
<path d="M12.5176 18.8189L10.4179 16.0494M9.74731 22.4731L6.34998 21.4152M24.2532 22.4731L27.6505 21.4152M21.4829 18.8189L23.5826 16.0494M17.0002 17.4233V14M29 25H22.1864M22.1864 25C22.1913 24.9111 22.1938 24.8215 22.1938 24.7314C22.1938 21.9827 19.8686 19.7543 17.0002 19.7543C14.1319 19.7543 11.8067 21.9827 11.8067 24.7314C11.8067 24.8215 11.8092 24.9111 11.8141 25M22.1864 25H11.8141M11.8141 25L5 25M17 6.93029V1M17 1L13.8616 4.13837M17 1L20.1384 4.13837" stroke="black" stroke-linecap="round" shape-rendering="crispEdges"/>
</g>
<defs>
<filter id="filter0_d_18_430" x="0.5" y="0.292847" width="33" height="33.2072" filterUnits="userSpaceOnUse" color-interpolation-filters="sRGB">
<feFlood flood-opacity="0" result="BackgroundImageFix"/>
<feColorMatrix in="SourceAlpha" type="matrix" values="0 0 0 0 0 0 0 0 0 0 0 0 0 0 0 0 0 0 127 0" result="hardAlpha"/>
<feOffset dy="4"/>
<feGaussianBlur stdDeviation="2"/>
<feComposite in2="hardAlpha" operator="out"/>
<feColorMatrix type="matrix" values="0 0 0 0 0 0 0 0 0 0 0 0 0 0 0 0 0 0 0.25 0"/>
<feBlend mode="normal" in2="BackgroundImageFix" result="effect1_dropShadow_18_430"/>
<feBlend mode="normal" in="SourceGraphic" in2="effect1_dropShadow_18_430" result="shape"/>
</filter>
</defs>
</svg>
