<svg width="657" height="140" viewBox="0 0 657 140" fill="none" xmlns="http://www.w3.org/2000/svg">
<g clip-path="url(#clip0_1_2)">
<g filter="url(#filter0_i_1_2)">
<path d="M19.2 85.576C17.664 85.576 16.4053 85.2133 15.424 84.488C14.4427 83.72 13.7813 82.6533 13.44 81.288L2.88 40.2C3.52 39.816 4.33067 39.624 5.312 39.624C6.54933 39.624 7.59467 39.944 8.448 40.584C9.30133 41.1813 9.856 42.0133 10.112 43.08L17.088 73.416L16.064 77.192L16.448 77.32L26.752 41.608C26.9227 40.968 27.2427 40.4773 27.712 40.136C28.224 39.7947 28.8213 39.624 29.504 39.624C30.144 39.624 30.72 39.7947 31.232 40.136C31.744 40.4773 32.0853 40.968 32.256 41.608L41.152 73.672L40.256 77.576L40.64 77.704L48.896 43.08C49.152 42.0133 49.6853 41.1813 50.496 40.584C51.3493 39.944 52.3733 39.624 53.568 39.624C54.5493 39.624 55.4027 39.816 56.128 40.2L45.568 81.288C45.2267 82.6533 44.544 83.72 43.52 84.488C42.5387 85.2133 41.28 85.576 39.744 85.576L28.8 46.856L28.416 46.984L29.248 49.992L19.2 85.576ZM79.1965 85.576C76.5938 85.576 74.2685 85.0853 72.2205 84.104C70.1725 83.08 68.5725 81.6933 67.4205 79.944C66.2685 78.152 65.6925 76.1467 65.6925 73.928V64.456C65.6925 62.1947 66.2898 60.1467 67.4845 58.312C68.7218 56.4773 70.3645 55.048 72.4125 54.024C74.5032 52.9573 76.7645 52.424 79.1965 52.424C81.6285 52.424 83.8472 52.936 85.8525 53.96C87.9005 54.984 89.5005 56.392 90.6525 58.184C91.8472 59.976 92.4445 62.0027 92.4445 64.264V68.36C92.4445 69.0427 92.1885 69.6187 91.6765 70.088C91.1645 70.5573 90.5458 70.792 89.8205 70.792H71.1325V73.672C71.1325 75.848 71.8152 77.5973 73.1805 78.92C74.5885 80.2427 76.5938 80.904 79.1965 80.904C81.7992 80.904 83.7832 80.328 85.1485 79.176C86.5138 78.024 87.1965 76.4667 87.1965 74.504C88.4765 74.4187 89.5432 74.6747 90.3965 75.272C91.2925 75.8267 91.7405 76.6587 91.7405 77.768C91.7405 79.1333 91.1432 80.4133 89.9485 81.608C88.7965 82.8027 87.2605 83.7627 85.3405 84.488C83.4205 85.2133 81.3725 85.576 79.1965 85.576ZM87.2605 66.44V64.264C87.2605 62.1307 86.5138 60.4027 85.0205 59.08C83.5698 57.7147 81.6285 57.032 79.1965 57.032C76.7645 57.032 74.8018 57.7147 73.3085 59.08C71.8578 60.4027 71.1325 62.1307 71.1325 64.264V66.44H87.2605ZM116.559 85.576C112.89 85.576 109.924 84.5947 107.663 82.632C105.444 80.6693 104.335 78.088 104.335 74.888C104.335 71.6453 105.508 69.0427 107.855 67.08C110.202 65.0747 113.295 64.072 117.135 64.072C121.231 64.072 124.602 65.5227 127.247 68.424L127.503 68.168C127.034 67.656 126.5 67.1227 125.903 66.568V63.88C125.903 61.704 125.22 60.0187 123.855 58.824C122.49 57.6293 120.548 57.032 118.031 57.032C113.551 57.032 110.351 58.8027 108.431 62.344C107.748 62.0027 107.172 61.5547 106.703 61C106.276 60.4027 106.063 59.8053 106.063 59.208C106.063 58.056 106.639 56.968 107.791 55.944C108.943 54.8773 110.458 54.024 112.335 53.384C114.255 52.744 116.26 52.424 118.351 52.424C122.404 52.424 125.583 53.4267 127.887 55.432C130.234 57.4373 131.407 60.2107 131.407 63.752V81.288C131.407 82.7813 130.98 83.8693 130.127 84.552C129.274 85.2347 127.93 85.576 126.095 85.576V82.568C126.991 81.6293 127.482 81.0747 127.567 80.904L127.311 80.648C124.538 83.9333 120.954 85.576 116.559 85.576ZM117.519 81.16C120.164 81.16 122.234 80.6053 123.727 79.496C125.263 78.3867 126.031 76.8507 126.031 74.888C126.031 72.9253 125.284 71.368 123.791 70.216C122.298 69.064 120.25 68.488 117.647 68.488C115.215 68.488 113.295 69.064 111.887 70.216C110.522 71.3253 109.839 72.8827 109.839 74.888C109.839 76.8933 110.5 78.4507 111.823 79.56C113.188 80.6267 115.087 81.16 117.519 81.16ZM156.961 85.576C153.932 85.576 151.67 84.7227 150.177 83.016C148.684 81.2667 147.937 78.984 147.937 76.168V57.48H141.985C141.985 56.0293 142.305 54.92 142.945 54.152C143.585 53.384 144.46 53 145.569 53H148.001V46.92C148.001 45.512 148.449 44.488 149.345 43.848C150.284 43.1653 151.67 42.824 153.505 42.824V53H162.017C162.017 55.9867 160.673 57.48 157.985 57.48H153.569V75.976C153.569 77.6827 153.868 78.8987 154.465 79.624C155.105 80.3067 156.236 80.648 157.857 80.648C159.35 80.648 160.758 80.264 162.081 79.496C162.636 80.0507 162.913 80.7973 162.913 81.736C162.913 82.76 162.38 83.656 161.313 84.424C160.246 85.192 158.796 85.576 156.961 85.576ZM176.703 44.36C176.703 42.824 177.172 41.6507 178.111 40.84C179.049 40.0293 180.436 39.624 182.271 39.624V56.456C181.673 57.1387 181.204 57.736 180.863 58.248L181.119 58.504C182.441 56.712 184.105 55.2613 186.111 54.152C188.116 53 190.292 52.424 192.639 52.424C196.095 52.424 198.825 53.448 200.831 55.496C202.836 57.544 203.839 60.1893 203.839 63.432V81.48C203.839 82.888 203.369 83.9333 202.431 84.616C201.535 85.256 200.148 85.576 198.271 85.576V64.008C198.271 61.96 197.695 60.3387 196.543 59.144C195.391 57.9493 193.641 57.352 191.295 57.352C189.716 57.352 188.223 57.6933 186.815 58.376C185.449 59.016 184.34 59.912 183.487 61.064C182.676 62.1733 182.271 63.3893 182.271 64.712V81.48C182.271 82.888 181.801 83.9333 180.863 84.616C179.967 85.256 178.58 85.576 176.703 85.576V44.36ZM232.044 85.576C229.441 85.576 227.116 85.0853 225.068 84.104C223.02 83.08 221.42 81.6933 220.268 79.944C219.116 78.152 218.54 76.1467 218.54 73.928V64.456C218.54 62.1947 219.137 60.1467 220.332 58.312C221.569 56.4773 223.212 55.048 225.26 54.024C227.351 52.9573 229.612 52.424 232.044 52.424C234.476 52.424 236.695 52.936 238.7 53.96C240.748 54.984 242.348 56.392 243.5 58.184C244.695 59.976 245.292 62.0027 245.292 64.264V68.36C245.292 69.0427 245.036 69.6187 244.524 70.088C244.012 70.5573 243.393 70.792 242.668 70.792H223.98V73.672C223.98 75.848 224.663 77.5973 226.028 78.92C227.436 80.2427 229.441 80.904 232.044 80.904C234.647 80.904 236.631 80.328 237.996 79.176C239.361 78.024 240.044 76.4667 240.044 74.504C241.324 74.4187 242.391 74.6747 243.244 75.272C244.14 75.8267 244.588 76.6587 244.588 77.768C244.588 79.1333 243.991 80.4133 242.796 81.608C241.644 82.8027 240.108 83.7627 238.188 84.488C236.268 85.2133 234.22 85.576 232.044 85.576ZM240.108 66.44V64.264C240.108 62.1307 239.361 60.4027 237.868 59.08C236.417 57.7147 234.476 57.032 232.044 57.032C229.612 57.032 227.649 57.7147 226.156 59.08C224.705 60.4027 223.98 62.1307 223.98 64.264V66.44H240.108ZM273.608 57.352C271.219 57.352 269.235 58.0773 267.656 59.528C266.077 60.936 265.288 62.664 265.288 64.712V81.48C265.288 82.888 264.819 83.9333 263.88 84.616C262.984 85.256 261.597 85.576 259.72 85.576V57.16C259.72 54.0027 261.512 52.424 265.096 52.424V56.328C264.413 57.0533 263.944 57.6933 263.688 58.248L263.944 58.504C266.675 54.4507 270.088 52.424 274.184 52.424C275.72 52.424 276.893 52.808 277.704 53.576C278.515 54.3013 278.92 55.1973 278.92 56.264C278.92 57.032 278.728 57.7147 278.344 58.312C277.149 57.672 275.571 57.352 273.608 57.352ZM339.777 43.016C339.777 42.2053 340.076 41.544 340.673 41.032C341.271 40.4773 341.996 40.2 342.849 40.2H371.393C371.393 41.992 371.031 43.3147 370.305 44.168C369.58 45.0213 368.471 45.448 366.977 45.448H345.793V59.464H363.713C363.713 61.256 363.351 62.5787 362.625 63.432C361.9 64.2853 360.791 64.712 359.297 64.712H345.793V80.712C345.793 82.376 345.303 83.6133 344.321 84.424C343.34 85.192 341.825 85.576 339.777 85.576V43.016ZM388.04 85.576C385.437 85.576 383.069 85.0853 380.936 84.104C378.845 83.1227 377.203 81.8 376.008 80.136C374.856 78.4293 374.28 76.5307 374.28 74.44V63.944C374.28 61.8107 374.856 59.8693 376.008 58.12C377.203 56.3707 378.845 54.984 380.936 53.96C383.027 52.936 385.395 52.424 388.04 52.424C390.685 52.424 393.053 52.936 395.144 53.96C397.277 54.984 398.92 56.3707 400.072 58.12C401.267 59.8693 401.864 61.8107 401.864 63.944V74.44C401.864 76.5307 401.267 78.4293 400.072 80.136C398.877 81.8 397.235 83.1227 395.144 84.104C393.053 85.0853 390.685 85.576 388.04 85.576ZM388.04 80.776C390.6 80.776 392.627 80.1787 394.12 78.984C395.656 77.7467 396.424 76.1467 396.424 74.184V64.136C396.424 62.088 395.656 60.424 394.12 59.144C392.627 57.864 390.6 57.224 388.04 57.224C385.523 57.224 383.496 57.864 381.96 59.144C380.424 60.424 379.656 62.088 379.656 64.136V74.184C379.656 76.1467 380.403 77.7467 381.896 78.984C383.432 80.1787 385.48 80.776 388.04 80.776ZM430.183 57.352C427.794 57.352 425.81 58.0773 424.231 59.528C422.652 60.936 421.863 62.664 421.863 64.712V81.48C421.863 82.888 421.394 83.9333 420.455 84.616C419.559 85.256 418.172 85.576 416.295 85.576V57.16C416.295 54.0027 418.087 52.424 421.671 52.424V56.328C420.988 57.0533 420.519 57.6933 420.263 58.248L420.519 58.504C423.25 54.4507 426.663 52.424 430.759 52.424C432.295 52.424 433.468 52.808 434.279 53.576C435.09 54.3013 435.495 55.1973 435.495 56.264C435.495 57.032 435.303 57.7147 434.919 58.312C433.724 57.672 432.146 57.352 430.183 57.352ZM459.262 85.576C456.659 85.576 454.334 85.0853 452.286 84.104C450.238 83.08 448.638 81.6933 447.486 79.944C446.334 78.152 445.758 76.1467 445.758 73.928V64.456C445.758 62.1947 446.355 60.1467 447.55 58.312C448.787 56.4773 450.43 55.048 452.478 54.024C454.568 52.9573 456.83 52.424 459.262 52.424C461.694 52.424 463.912 52.936 465.918 53.96C467.966 54.984 469.566 56.392 470.718 58.184C471.912 59.976 472.51 62.0027 472.51 64.264V68.36C472.51 69.0427 472.254 69.6187 471.742 70.088C471.23 70.5573 470.611 70.792 469.886 70.792H451.198V73.672C451.198 75.848 451.88 77.5973 453.246 78.92C454.654 80.2427 456.659 80.904 459.262 80.904C461.864 80.904 463.848 80.328 465.214 79.176C466.579 78.024 467.262 76.4667 467.262 74.504C468.542 74.4187 469.608 74.6747 470.462 75.272C471.358 75.8267 471.806 76.6587 471.806 77.768C471.806 79.1333 471.208 80.4133 470.014 81.608C468.862 82.8027 467.326 83.7627 465.406 84.488C463.486 85.2133 461.438 85.576 459.262 85.576ZM467.326 66.44V64.264C467.326 62.1307 466.579 60.4027 465.086 59.08C463.635 57.7147 461.694 57.032 459.262 57.032C456.83 57.032 454.867 57.7147 453.374 59.08C451.923 60.4027 451.198 62.1307 451.198 64.264V66.44H467.326ZM499.737 85.576C497.135 85.576 494.809 85.1067 492.761 84.168C490.713 83.2293 489.113 81.9067 487.961 80.2C486.852 78.4933 486.297 76.552 486.297 74.376V64.008C486.297 61.7467 486.852 59.7413 487.961 57.992C489.113 56.2427 490.692 54.8773 492.697 53.896C494.703 52.9147 497.007 52.424 499.609 52.424C502.041 52.424 504.196 52.7867 506.073 53.512C507.993 54.1947 509.487 55.176 510.553 56.456C511.62 57.736 512.153 59.1867 512.153 60.808C512.153 61.8747 511.727 62.7493 510.873 63.432C510.063 64.072 508.996 64.3493 507.673 64.264C507.673 62.216 506.927 60.552 505.433 59.272C503.983 57.992 502.084 57.352 499.737 57.352C497.391 57.352 495.492 57.992 494.041 59.272C492.591 60.5093 491.865 62.1307 491.865 64.136V74.12C491.865 76.04 492.612 77.6187 494.105 78.856C495.599 80.0507 497.519 80.648 499.865 80.648C502.212 80.648 504.111 80.008 505.561 78.728C507.055 77.448 507.801 75.8053 507.801 73.8C509.167 73.7147 510.255 73.992 511.065 74.632C511.919 75.2293 512.345 76.0827 512.345 77.192C512.345 78.8133 511.812 80.264 510.745 81.544C509.679 82.824 508.185 83.8267 506.265 84.552C504.345 85.2347 502.169 85.576 499.737 85.576ZM536.414 85.576C532.745 85.576 529.779 84.5947 527.518 82.632C525.299 80.6693 524.19 78.088 524.19 74.888C524.19 71.6453 525.363 69.0427 527.71 67.08C530.057 65.0747 533.15 64.072 536.99 64.072C541.086 64.072 544.457 65.5227 547.102 68.424L547.358 68.168C546.889 67.656 546.355 67.1227 545.758 66.568V63.88C545.758 61.704 545.075 60.0187 543.71 58.824C542.345 57.6293 540.403 57.032 537.886 57.032C533.406 57.032 530.206 58.8027 528.286 62.344C527.603 62.0027 527.027 61.5547 526.558 61C526.131 60.4027 525.918 59.8053 525.918 59.208C525.918 58.056 526.494 56.968 527.646 55.944C528.798 54.8773 530.313 54.024 532.19 53.384C534.11 52.744 536.115 52.424 538.206 52.424C542.259 52.424 545.438 53.4267 547.742 55.432C550.089 57.4373 551.262 60.2107 551.262 63.752V81.288C551.262 82.7813 550.835 83.8693 549.982 84.552C549.129 85.2347 547.785 85.576 545.95 85.576V82.568C546.846 81.6293 547.337 81.0747 547.422 80.904L547.166 80.648C544.393 83.9333 540.809 85.576 536.414 85.576ZM537.374 81.16C540.019 81.16 542.089 80.6053 543.582 79.496C545.118 78.3867 545.886 76.8507 545.886 74.888C545.886 72.9253 545.139 71.368 543.646 70.216C542.153 69.064 540.105 68.488 537.502 68.488C535.07 68.488 533.15 69.064 531.742 70.216C530.377 71.3253 529.694 72.8827 529.694 74.888C529.694 76.8933 530.355 78.4507 531.678 79.56C533.043 80.6267 534.942 81.16 537.374 81.16ZM577.601 85.576C575.425 85.576 573.377 85.256 571.457 84.616C569.537 83.9333 567.98 82.9733 566.785 81.736C565.633 80.4987 565.057 79.048 565.057 77.384C565.057 75.336 566.295 74.2267 568.769 74.056C569.196 76.4453 570.199 78.216 571.777 79.368C573.399 80.4773 575.447 81.032 577.921 81.032C580.396 81.032 582.316 80.6693 583.681 79.944C585.047 79.2187 585.729 78.1093 585.729 76.616C585.729 75.5493 585.452 74.696 584.897 74.056C584.343 73.3733 583.447 72.7973 582.209 72.328C581.015 71.816 579.287 71.3253 577.025 70.856C574.209 70.216 571.969 69.5333 570.305 68.808C568.641 68.0827 567.361 67.1227 566.465 65.928C565.612 64.7333 565.185 63.1547 565.185 61.192C565.185 59.528 565.697 58.0347 566.721 56.712C567.745 55.3467 569.153 54.3013 570.945 53.576C572.78 52.808 574.849 52.424 577.153 52.424C579.287 52.424 581.292 52.7227 583.169 53.32C585.089 53.9173 586.625 54.7707 587.777 55.88C588.972 56.9893 589.569 58.2693 589.569 59.72C589.569 60.7013 589.185 61.4907 588.417 62.088C587.649 62.6427 586.583 62.9627 585.217 63.048C585.089 61.1707 584.321 59.6987 582.913 58.632C581.548 57.5227 579.628 56.968 577.153 56.968C575.105 56.968 573.484 57.352 572.289 58.12C571.095 58.888 570.497 59.912 570.497 61.192C570.497 62.5573 571.052 63.5813 572.161 64.264C573.313 64.904 575.255 65.5227 577.985 66.12C582.465 67.016 585.751 68.2533 587.841 69.832C589.975 71.368 591.041 73.5653 591.041 76.424C591.041 79.3253 589.868 81.5867 587.521 83.208C585.175 84.7867 581.868 85.576 577.601 85.576ZM615.294 85.576C612.264 85.576 610.003 84.7227 608.51 83.016C607.016 81.2667 606.27 78.984 606.27 76.168V57.48H600.318C600.318 56.0293 600.638 54.92 601.278 54.152C601.918 53.384 602.792 53 603.902 53H606.334V46.92C606.334 45.512 606.782 44.488 607.678 43.848C608.616 43.1653 610.003 42.824 611.838 42.824V53H620.35C620.35 55.9867 619.006 57.48 616.318 57.48H611.902V75.976C611.902 77.6827 612.2 78.8987 612.798 79.624C613.438 80.3067 614.568 80.648 616.19 80.648C617.683 80.648 619.091 80.264 620.414 79.496C620.968 80.0507 621.246 80.7973 621.246 81.736C621.246 82.76 620.712 83.656 619.646 84.424C618.579 85.192 617.128 85.576 615.294 85.576Z" fill="#95B6F6"/>
</g>
<path fill-rule="evenodd" clip-rule="evenodd" d="M302.532 61.0559C302.886 61.019 303.245 61 303.608 61C308.469 61 312.566 64.3898 313.821 69.0139C313.921 69.0073 314.023 69.0031 314.124 69.0012C314.083 69.0005 314.041 69.0001 314 69.0001L313.966 69.0002L313.966 69H315.5H315.56V68.9995C317.465 68.9673 319 67.4129 319 65.5C319 63.567 317.433 62 315.5 62C314.851 62 314.243 62.1767 313.722 62.4845C313.721 61.9258 313.636 61.3866 313.479 60.8789C312.7 58.6215 310.557 57 308.035 57C305.447 57 303.258 58.7068 302.532 61.0559ZM318.177 70.3059C319.886 71.5759 321 73.653 321 76C321 79.866 317.978 83 314.249 83C314.166 83 314.083 82.9984 314 82.9953V83H303.767V82.9988C303.714 82.9996 303.661 83 303.608 83C297.749 83 293 78.0751 293 72C293 67.0943 296.097 62.9387 300.374 61.5206C300.967 57.8241 304.171 55 308.035 55C311.349 55 314.179 57.0788 315.29 60.0039C315.36 60.0013 315.43 60 315.5 60C318.538 60 321 62.4624 321 65.5C321 67.5659 319.861 69.3658 318.177 70.3059ZM314 81H303.767H303.652V80.9999L303.608 81C298.922 81 295 77.0395 295 72C295 66.9605 298.922 63 303.608 63C307.584 63 311.009 65.85 311.957 69.7911L311.96 69.7899C312.094 70.3367 312.179 70.9037 312.211 71.4855C312.834 71.1732 313.527 71 314.249 71C316.805 71 319 73.1696 319 76C319 78.8105 316.836 80.9695 314.303 80.9996V81H314Z" fill="url(#paint0_linear_1_2)"/>
<path fill-rule="evenodd" clip-rule="evenodd" d="M302.532 61.0559C302.886 61.019 303.245 61 303.608 61C308.469 61 312.566 64.3898 313.821 69.0139C313.921 69.0073 314.023 69.0031 314.124 69.0012C314.083 69.0005 314.041 69.0001 314 69.0001L313.966 69.0002L313.966 69H315.5H315.56V68.9995C317.465 68.9673 319 67.4129 319 65.5C319 63.567 317.433 62 315.5 62C314.851 62 314.243 62.1767 313.722 62.4845C313.721 61.9258 313.636 61.3866 313.479 60.8789C312.7 58.6215 310.557 57 308.035 57C305.447 57 303.258 58.7068 302.532 61.0559ZM318.177 70.3059C319.886 71.5759 321 73.653 321 76C321 79.866 317.978 83 314.249 83C314.166 83 314.083 82.9984 314 82.9953V83H303.767V82.9988C303.714 82.9996 303.661 83 303.608 83C297.749 83 293 78.0751 293 72C293 67.0943 296.097 62.9387 300.374 61.5206C300.967 57.8241 304.171 55 308.035 55C311.349 55 314.179 57.0788 315.29 60.0039C315.36 60.0013 315.43 60 315.5 60C318.538 60 321 62.4624 321 65.5C321 67.5659 319.861 69.3658 318.177 70.3059ZM314 81H303.767H303.652V80.9999L303.608 81C298.922 81 295 77.0395 295 72C295 66.9605 298.922 63 303.608 63C307.584 63 311.009 65.85 311.957 69.7911L311.96 69.7899C312.094 70.3367 312.179 70.9037 312.211 71.4855C312.834 71.1732 313.527 71 314.249 71C316.805 71 319 73.1696 319 76C319 78.8105 316.836 80.9695 314.303 80.9996V81H314Z" fill="#B2D4F7"/>
</g>
<defs>
<filter id="filter0_i_1_2" x="2.88" y="39.624" width="618.366" height="49.952" filterUnits="userSpaceOnUse" color-interpolation-filters="sRGB">
<feFlood flood-opacity="0" result="BackgroundImageFix"/>
<feBlend mode="normal" in="SourceGraphic" in2="BackgroundImageFix" result="shape"/>
<feColorMatrix in="SourceAlpha" type="matrix" values="0 0 0 0 0 0 0 0 0 0 0 0 0 0 0 0 0 0 127 0" result="hardAlpha"/>
<feOffset dy="4"/>
<feGaussianBlur stdDeviation="3.5"/>
<feComposite in2="hardAlpha" operator="arithmetic" k2="-1" k3="1"/>
<feColorMatrix type="matrix" values="0 0 0 0 0 0 0 0 0 0 0 0 0 0 0 0 0 0 0.25 0"/>
<feBlend mode="normal" in2="shape" result="effect1_innerShadow_1_2"/>
</filter>
<linearGradient id="paint0_linear_1_2" x1="307" y1="55" x2="307" y2="83" gradientUnits="userSpaceOnUse">
<stop stop-color="#B2D4F7"/>
<stop offset="1" stop-color="#D9E2F3"/>
</linearGradient>
<clipPath id="clip0_1_2">
<rect width="657" height="140" fill="white"/>
</clipPath>
</defs>
</svg>
